<?xml version="1.0" encoding="UTF-8" standalone="no"?>
<!-- Created with Inkscape (http://www.inkscape.org/) -->

<svg
   version="1.1"
   id="svg2"
   width="6000"
   height="4000"
   viewBox="0 0 6000 4000"
   sodipodi:docname="vecteezy_monoline-letter-q-logo-template_14429701.eps"
   xmlns:inkscape="http://www.inkscape.org/namespaces/inkscape"
   xmlns:sodipodi="http://sodipodi.sourceforge.net/DTD/sodipodi-0.dtd"
   xmlns="http://www.w3.org/2000/svg"
   xmlns:svg="http://www.w3.org/2000/svg">
  <defs
     id="defs6" />
  <sodipodi:namedview
     id="namedview4"
     pagecolor="#ffffff"
     bordercolor="#000000"
     borderopacity="0.25"
     inkscape:showpageshadow="2"
     inkscape:pageopacity="0.0"
     inkscape:pagecheckerboard="0"
     inkscape:deskcolor="#d1d1d1" />
  <g
     id="g8"
     inkscape:groupmode="layer"
     inkscape:label="ink_ext_XXXXXX"
     transform="matrix(1.3333333,0,0,-1.3333333,0,4000)">
    <g
       id="g10"
       transform="scale(0.1)">
      <path
         d="m 22500,22500 c -4141.7,0 -7500,-3358.3 -7500,-7500 0,-4141.7 3358.3,-7500 7500,-7500 1312.5,0.1 2545.8,337.5 3620.8,933.2 L 25504.1,9050 C 24600,8591.7 23579.2,8333.3 22500,8333.3 c -3683.5,0 -6666.7,2983.4 -6666.7,6666.7 0,3683.3 2983.2,6666.7 6666.7,6666.7 3683.4,0 6666.6,-2983.4 6666.6,-6666.7 0,-1079.2 -258.3,-2100 -716.6,-3004.2 l 616.6,-616.6 c 595.8,1074.9 933.3,2308.2 933.3,3620.8 0.1,4141.7 -3358.2,7500 -7499.9,7500"
         style="fill:#c9882e;fill-opacity:1;fill-rule:evenodd;stroke:none"
         id="path12" />
      <path
         d="m 22500,20833.4 c -3221,0 -5833.5,-2612.6 -5833.5,-5833.4 0,-3220.8 2612.5,-5833.3 5833.5,-5833.3 845.8,0 1654.1,183.3 2379.2,508.3 l -637.5,637.5 c -541.7,-204.2 -1129.3,-312.6 -1741.7,-312.6 -2762.5,0 -5000.1,2237.6 -5000.1,5000.1 0,2762.5 2237.6,5000.1 5000.1,5000.1 2762.5,0 5000,-2237.6 5000,-5000.1 0,-612.5 -108.3,-1200 -312.5,-1741.7 l 637.5,-637.5 c 324.9,725.1 508.4,1533.3 508.4,2379.2 0,3220.8 -2612.5,5833.4 -5833.4,5833.4"
         style="fill:#c9882e;fill-opacity:1;fill-rule:evenodd;stroke:none"
         id="path14" />
      <path
         d="m 25137.5,11775 c 0,0 -595.9,591.6 -595.9,591.7 19.6,-36.2 -709.4,-425.9 -737.4,-437.6 -400.1,-166.6 -841.7,-262.4 -1304.2,-262.4 -1841.8,0 -3333.3,1491.6 -3333.3,3333.3 0,1841.7 1491.5,3333.3 3333.3,3333.3 1841.7,0 3333.3,-1491.7 3333.3,-3333.3 0,-462.5 -95.8,-904.2 -262.6,-1304.2 -107.7,-258.7 -272.4,-506.4 -437.3,-737.5 l 591.5,-595.8 3096,-3095.9 -587.5,-587.4 z m 1054.2,1300 c 304,575 474.9,1229.2 474.9,1925 0,2300 -1866.7,4166.7 -4166.6,4166.7 -2300,0 -4166.7,-1866.7 -4166.7,-4166.7 0,-2299.9 1866.7,-4166.7 4166.7,-4166.7 695.7,0 1349.9,170.8 1925,475 L 28233.4,7500.1 30000,9266.6 26191.7,13075"
         style="fill:#c9882e;fill-opacity:1;fill-rule:evenodd;stroke:none"
         id="path16" />
    </g>
  </g>
</svg>
